# Blender v2.79 (sub 0) OBJ File: 'plane.blend'
# www.blender.org
# mtllib plane.mtl
o Plane
        
# bottom-left
v -0.500000 -0.500000 -0.000000
        
# top-left
v -0.500000 0.500000 -0.000000

# bottom-right
v 0.500000 -0.500000 0.000000

# top-right
v 0.500000 0.500000 0.000000
        
###################
        
# bottom-left
vt 0.000000 0.000000
        
# top-right
vt 1.000000 1.000000
# vt 0.500000 1.000000
        
# top-left
vt 0.000000 1.000000
        
# bottom-right
vt 1.000000 0.000000
# vt 0.500000 0.000000
        
###################
        
vn 0.0000 0.0000 -1.0000
# usemtl Material.001
# s off
f 2/1/1 3/2/1 1/3/1
f 2/1/1 4/4/1 3/2/1
